<?xml version="1.0" standalone="no"?>
<!DOCTYPE svg PUBLIC "-//W3C//DTD SVG 20010904//EN"
 "http://www.w3.org/TR/2001/REC-SVG-20010904/DTD/svg10.dtd">
<svg version="1.0" xmlns="http://www.w3.org/2000/svg"
 width="500.000000pt" height="500.000000pt" viewBox="0 0 500.000000 500.000000"
 preserveAspectRatio="xMidYMid meet">
<metadata>
Created by potrace 1.14, written by Peter Selinger 2001-2017
</metadata>
<g transform="translate(0.000000,500.000000) scale(0.100000,-0.100000)"
fill="#000000" stroke="none">
<path d="M2292 4950 c-663 -65 -1257 -377 -1681 -884 -514 -614 -691 -1466
-466 -2245 82 -286 219 -558 408 -811 91 -122 334 -364 458 -457 337 -252 717
-414 1125 -479 140 -22 445 -29 601 -15 466 45 929 233 1298 526 95 76 272
251 363 360 286 341 484 806 543 1270 18 144 16 464 -5 610 -75 532 -298 994
-667 1380 -373 389 -871 645 -1414 726 -151 22 -429 32 -563 19z m843 -909
c288 -76 439 -261 465 -571 11 -118 -1 -326 -24 -432 -18 -81 -75 -207 -119
-262 -40 -51 -57 -88 -57 -127 0 -37 11 -58 65 -124 111 -137 150 -371 110
-656 -72 -514 -389 -779 -1005 -838 -123 -12 -723 -46 -1007 -57 -166 -7 -173
-6 -173 12 0 17 45 684 55 819 9 118 37 504 40 545 3 40 31 424 40 540 1 25
12 171 24 325 11 154 25 339 30 410 22 284 34 374 50 380 9 2 198 16 421 29
223 14 430 27 460 30 30 2 165 2 300 1 213 -2 256 -5 325 -24z"/>
<path d="M2449 3320 c-35 -18 -67 -70 -61 -97 2 -7 -2 -13 -8 -13 -7 0 -10
-11 -6 -27 3 -16 8 -51 11 -80 10 -80 31 -97 123 -101 150 -7 224 45 237 165
7 59 -17 129 -46 138 -10 4 -19 10 -19 15 0 5 -7 7 -15 4 -8 -4 -15 -1 -15 5
0 20 -160 13 -201 -9z"/>
<path d="M2425 2180 c-87 -18 -96 -21 -116 -41 -23 -23 -39 -69 -39 -111 0
-16 -4 -28 -8 -28 -13 0 -7 -212 6 -237 7 -13 25 -26 40 -29 15 -4 32 -11 39
-16 19 -15 236 2 268 21 6 3 16 6 24 8 8 1 18 8 22 15 5 7 9 10 9 5 0 -4 15
10 34 30 35 39 66 123 66 178 0 53 -29 133 -58 160 -15 14 -43 30 -62 36 -48
14 -176 19 -225 9z"/>
</g>
</svg>
