<?xml version="1.0" standalone="no"?>
<!DOCTYPE svg PUBLIC "-//W3C//DTD SVG 20010904//EN"
 "http://www.w3.org/TR/2001/REC-SVG-20010904/DTD/svg10.dtd">
<svg version="1.0" xmlns="http://www.w3.org/2000/svg"
 width="500.000000pt" height="500.000000pt" viewBox="0 0 500.000000 500.000000"
 preserveAspectRatio="xMidYMid meet">
<metadata>
Created by potrace 1.14, written by Peter Selinger 2001-2017
</metadata>
<g transform="translate(0.000000,500.000000) scale(0.100000,-0.100000)"
fill="#000000" stroke="none">
<path d="M247 4989 c-94 -22 -188 -104 -223 -194 -19 -49 -19 -106 -19 -2295
0 -2193 0 -2246 19 -2295 26 -65 103 -147 169 -176 l52 -24 2255 0 2255 0 52
24 c66 29 143 111 169 176 19 49 19 102 19 2295 0 2193 0 2246 -19 2295 -26
65 -103 147 -169 176 l-52 24 -2235 2 c-1282 0 -2251 -3 -2273 -8z m2969 -423
c396 -67 617 -264 700 -626 22 -95 29 -362 14 -521 -28 -309 -111 -494 -300
-672 l-81 -76 56 -36 c253 -161 344 -423 306 -879 -33 -386 -141 -649 -351
-850 -234 -223 -559 -346 -1020 -385 -191 -17 -1552 -92 -1557 -87 -7 7 289
4049 298 4059 4 5 306 26 670 48 365 21 693 40 729 42 124 8 445 -2 536 -17z"/>
<path d="M2393 3717 c-100 -7 -184 -15 -188 -19 -8 -8 -61 -695 -54 -702 9 -9
485 24 534 37 113 31 175 83 222 182 26 56 28 68 28 196 0 131 -1 137 -30 194
-26 51 -38 64 -87 89 -70 35 -153 40 -425 23z"/>
<path d="M2340 2153 c-140 -9 -256 -17 -258 -18 -4 -4 -62 -789 -58 -792 6 -7
529 27 581 38 60 11 142 48 190 84 74 57 119 163 130 310 12 152 -24 273 -98
329 -81 62 -150 69 -487 49z"/>
</g>
</svg>
